<svg xmlns="http://www.w3.org/2000/svg" width="77" height="77" viewBox="0 0 77 77">
    <g fill="none" fill-rule="evenodd">
        <path d="M-12-12H88V88H-12z"/>
        <path fill="#E75647" fill-rule="nonzero" d="M42.684.745h-8.388v41.94h8.388V.744zm20.257 9.1l-5.956 5.956c6.627 5.326 10.862 13.505 10.862 22.69 0 16.23-13.126 29.356-29.357 29.356-16.23 0-29.357-13.126-29.357-29.357 0-9.184 4.236-17.363 10.82-22.73L14.04 9.845C5.904 16.766.745 26.999.745 38.49c0 20.844 16.902 37.745 37.745 37.745 20.844 0 37.745-16.901 37.745-37.745 0-11.491-5.158-21.724-13.294-28.644z"/>
    </g>
</svg>
